<svg width="428" height="362" viewBox="0 0 428 362" fill="none" xmlns="http://www.w3.org/2000/svg">
<path fill-rule="evenodd" clip-rule="evenodd" d="M111.943 1.99157C109.622 3.14057 106.24 6.08157 104.428 8.52757L101.134 12.9746L86.1487 13.2646C72.3707 13.5306 70.5067 13.7956 62.9987 16.5536C48.0477 22.0466 35.2947 31.3676 32.2227 39.0456C31.0157 42.0616 30.7367 44.6386 31.2087 48.4136C31.7007 52.3496 31.4417 54.4286 30.1517 56.9236C29.2127 58.7396 28.2097 62.8136 27.9227 65.9766L27.4017 71.7286L21.6387 73.8296C10.9757 77.7176 2.76667 85.3236 0.543674 93.3746C-3.08533 106.517 11.9517 140.283 30.7867 161.286C36.7217 167.904 40.5187 169.901 47.1647 169.901C50.0397 169.901 53.5387 170.817 56.6147 172.376C63.2137 175.72 68.6847 176.455 75.2487 174.881C78.2337 174.165 80.8497 173.764 81.0627 173.99C81.2767 174.216 82.4647 181.151 83.7027 189.401C85.2267 199.553 86.1497 211.511 86.5597 226.401C87.1267 247.059 87.3037 248.627 89.4637 252.1C90.9267 254.452 93.5187 256.636 96.5867 258.1C102.387 260.867 102.387 260.863 103.324 286.594L103.95 303.786L98.5147 308.754C95.5247 311.487 91.8727 315.939 90.3977 318.648C85.2687 328.073 83.0957 344.211 86.0147 351.199C87.8067 355.489 93.8177 360.652 97.9147 361.42C99.7257 361.76 111.785 361.895 124.712 361.72L148.216 361.401L155.018 358.05C166.378 352.453 176.703 340.692 185.566 323.25C188.352 317.768 189.076 317.047 192.422 316.427C197.634 315.461 201.905 312.603 205.161 307.905C206.687 305.703 208.255 303.901 208.645 303.901C209.035 303.901 210.21 304.847 211.257 306.003C214.301 309.367 218.192 310.901 223.68 310.901C229.541 310.901 231.36 310.108 237.84 304.723L242.517 300.838L246.973 303.979C255.892 310.266 266.519 308.422 272.81 299.496L276.012 294.953L279.208 296.928C283.913 299.836 290.409 300.453 295.193 298.447C298.899 296.893 299.231 296.894 300.164 298.45C303.834 304.57 310 308.901 315.044 308.901C317.103 308.901 317.77 309.705 319.145 313.844C320.048 316.563 321.737 319.995 322.897 321.47C325.202 324.401 331.89 327.844 335.344 327.879C337.334 327.899 337.44 328.185 336.557 331.151C336.025 332.939 335.522 337.551 335.44 341.401C335.246 350.472 337.396 355.136 343.592 359.084L348.164 361.998L374.19 361.7L400.215 361.401L406.832 358.141C418.024 352.628 424.462 343.34 426.648 329.555C428.989 314.786 422.898 292.352 412.1 275.969C408.032 269.798 404.722 259.38 396.095 225.591C384.478 180.095 377.134 159.278 367.847 145.517C365.116 141.471 364.895 140.383 364.243 127.804C361.883 82.2466 354.482 57.1526 341.089 49.3036C337.255 47.0566 335.19 46.5416 330.207 46.5886C326.623 46.6216 322.761 47.3166 320.95 48.2526C316.673 50.4646 311.997 56.4036 309.697 62.5446C307.103 69.4736 305.403 86.3436 305.912 100.115C306.468 115.179 306.576 114.901 300.159 114.901C297.259 114.901 281.009 115.812 264.048 116.925C211.749 120.357 209.151 120.128 195.308 110.869C185.631 104.396 176.431 94.3906 166.51 79.5486C155.555 63.1606 151.131 53.9726 148.787 42.7466C144.438 21.9206 136.198 6.76457 126.549 1.84157C121.644 -0.660428 117.209 -0.615426 111.943 1.99157ZM123.23 23.4226C126.881 29.6526 130.25 39.7916 132.029 49.9006C135.77 71.1646 164.133 111.518 185.006 125.272C197.493 133.501 205.04 136.133 217.664 136.663C231.974 137.265 309.608 132.243 313.898 130.439C315.694 129.683 318.514 127.649 320.164 125.919L323.164 122.774L323.803 98.5866C324.157 85.1816 324.954 72.7436 325.591 70.6846C326.707 67.0716 329.031 63.9006 330.561 63.9006C331.729 63.9006 335.261 68.0666 336.98 71.4716C341.952 81.3206 346.634 112.963 346.655 136.858C346.664 146.292 346.674 146.328 350.727 152.106C360.786 166.447 367.409 184.629 378.258 227.69C387.134 262.918 389.866 271.869 394.281 280.178C403.588 297.692 406.804 304.989 408.263 311.901C411.016 324.938 408.391 336.094 401.343 341.312C398.707 343.265 397.022 343.421 375.497 343.704L352.47 344.007L353.187 339.704C354.396 332.441 356.693 328.048 361.529 323.742L366.164 319.616L360.016 320.233C352.909 320.945 353.866 322.455 351.068 306.127C350.1 300.476 348.977 295.976 348.572 296.127C348.168 296.278 345.323 299.476 342.251 303.233C338.954 307.265 336.492 309.52 336.243 308.733C336.012 308.001 333.951 301.551 331.664 294.401C329.377 287.251 327.311 280.788 327.073 280.038C326.808 279.205 324.733 281.062 321.73 284.819C319.029 288.197 316.606 290.61 316.345 290.181C316.083 289.752 313.304 283.101 310.168 275.401C307.032 267.701 304.097 261.009 303.644 260.53C302.885 259.726 301.281 262.008 292.257 276.721L288.994 282.041L283.283 272.471C277.657 263.044 276.351 261.669 275.393 264.166C275.034 265.101 260.371 286.694 257.963 289.834C257.78 290.073 254.396 287.039 250.443 283.093L243.254 275.919L240.709 278.208C239.309 279.467 235.11 283.288 231.377 286.699C227.645 290.11 224.217 292.901 223.759 292.901C223.302 292.901 219.831 289.099 216.046 284.452C212.261 279.806 208.714 275.995 208.164 275.983C207.614 275.972 203.401 280.899 198.802 286.932C194.203 292.965 190.128 297.901 189.746 297.901C189.363 297.901 187.527 294.751 185.664 290.901C183.801 287.051 182.027 283.906 181.721 283.912C181.415 283.918 179.822 288.306 178.181 293.662C174.445 305.864 165.209 324.604 159.225 332.129C156.593 335.439 152.45 339.13 149.416 340.87L144.164 343.882L123.275 343.892L102.386 343.901L102.93 337.901C103.813 328.166 109.951 319.824 118.164 317.196L121.164 316.237L121.473 301.319C121.643 293.114 121.29 280.673 120.688 273.672C119.609 261.13 116.128 239.565 114.797 237.178C114.306 236.297 112.861 236.786 109.639 238.921L105.164 241.887L104.514 223.144C103.955 207.025 100.355 175.502 98.0007 166.111C97.6587 164.744 98.0437 163.131 98.9557 162.111C99.7967 161.17 101.034 157.589 101.705 154.151C102.376 150.714 103.203 147.901 103.544 147.902C103.885 147.902 106.607 148.83 109.592 149.965C118.665 153.414 121.24 151.324 123.834 138.41L124.899 133.103L130.532 136.5C133.629 138.368 136.882 139.897 137.759 139.898C140.614 139.903 142.576 136.451 143.811 129.251C144.851 123.186 144.784 121.222 143.337 115.36C141.13 106.417 139.436 103.901 135.62 103.901C131.109 103.901 129.868 107.376 132.009 114.005C133.801 119.556 134.187 124.901 132.795 124.901C132.316 124.901 129.665 123.101 126.901 120.901C121.82 116.855 117.749 115.835 115.923 118.151C115.381 118.839 114.672 123.022 114.348 127.447C113.39 140.521 112.57 141.13 103.618 135.427C97.2457 131.367 96.3367 131.228 93.6637 133.901C92.0337 135.531 91.6617 137.244 91.6527 143.151C91.6387 152.258 90.7307 157.904 89.2827 157.891C88.6677 157.886 85.8057 156.784 82.9237 155.442C79.0657 153.646 76.9167 151.792 74.7717 148.411L71.8597 143.819L70.5897 150.925C69.3647 157.784 69.2327 158.01 66.8207 157.404C65.4467 157.059 63.1607 155.874 61.7427 154.771C58.6937 152.4 51.6637 142.306 51.6637 140.3C51.6637 136.931 49.7567 139.355 48.6347 144.151C46.6767 152.52 46.4847 152.575 41.5187 146.198C27.8997 128.708 17.6637 108.361 17.6637 98.7796C17.6637 96.0126 23.0687 92.2716 31.8957 88.9286C54.0397 80.5436 58.4117 78.7616 61.5407 76.8446L64.9177 74.7756L62.1257 71.8616C58.6677 68.2516 53.6137 66.4996 49.0987 67.3466C45.2337 68.0716 44.9757 67.4836 47.0147 62.6026C48.8667 58.1706 54.7707 53.2246 59.9007 51.8066L64.1637 50.6296L56.9137 48.1816C52.9257 46.8356 49.6637 45.3116 49.6637 44.7956C49.6637 43.3286 61.2757 36.1896 67.3707 33.9096C74.0027 31.4276 86.8037 29.5166 91.2297 30.3466C94.3577 30.9336 94.4187 31.0456 93.6127 34.6746C93.1577 36.7236 92.2727 42.2906 91.6447 47.0456C90.6657 54.4636 90.7257 56.1196 92.0667 58.7126C94.2507 62.9366 99.4297 64.5906 103.646 62.4096C107.549 60.3916 108.305 58.5246 109.669 47.5356C111.346 34.0236 116.632 18.9006 119.679 18.9006C120.174 18.9006 121.772 20.9356 123.23 23.4226Z" fill="white"/>
</svg>
